<svg width="2" height="190" viewBox="0 0 2 190" fill="none" xmlns="http://www.w3.org/2000/svg">
<path d="M1.5 1C1.5 0.723858 1.27614 0.5 1 0.5C0.723858 0.5 0.5 0.723858 0.5 1H1.5ZM0.5 190L0.5 190.5L1.5 190.5L1.5 190L0.5 190ZM1.5 186.062C1.5 185.786 1.27614 185.562 1 185.563C0.723858 185.563 0.5 185.786 0.5 186.063L1.5 186.062ZM0.5 178.188C0.5 178.464 0.723858 178.688 1 178.688C1.27614 178.687 1.5 178.464 1.5 178.187L0.5 178.188ZM1.5 170.312C1.5 170.036 1.27614 169.812 1 169.813C0.723858 169.813 0.5 170.036 0.5 170.313L1.5 170.312ZM0.5 162.438C0.5 162.714 0.723858 162.938 1 162.938C1.27614 162.937 1.5 162.714 1.5 162.437L0.5 162.438ZM1.5 154.562C1.5 154.286 1.27614 154.062 1 154.063C0.723858 154.063 0.5 154.286 0.5 154.563L1.5 154.562ZM0.5 146.688C0.5 146.964 0.723858 147.188 1 147.188C1.27614 147.187 1.5 146.964 1.5 146.687L0.5 146.688ZM1.5 138.812C1.5 138.536 1.27614 138.312 1 138.313C0.723858 138.313 0.5 138.536 0.5 138.813L1.5 138.812ZM0.5 130.938C0.5 131.214 0.723858 131.438 1 131.438C1.27614 131.437 1.5 131.214 1.5 130.937L0.5 130.938ZM1.5 123.062C1.5 122.786 1.27614 122.562 1 122.563C0.723858 122.563 0.5 122.786 0.5 123.063L1.5 123.062ZM0.5 115.187C0.5 115.464 0.723858 115.687 1 115.687C1.27614 115.687 1.5 115.464 1.5 115.187L0.5 115.187ZM1.5 107.312C1.5 107.036 1.27614 106.812 1 106.813C0.723858 106.813 0.5 107.036 0.5 107.313L1.5 107.312ZM0.5 99.4375C0.5 99.7136 0.723858 99.9375 1 99.9375C1.27614 99.9375 1.5 99.7136 1.5 99.4375L0.5 99.4375ZM1.5 91.5625C1.5 91.2864 1.27614 91.0625 1 91.0625C0.723858 91.0625 0.5 91.2864 0.5 91.5625L1.5 91.5625ZM0.5 83.6875C0.5 83.9636 0.723858 84.1875 1 84.1875C1.27614 84.1875 1.5 83.9636 1.5 83.6875L0.5 83.6875ZM1.5 75.8125C1.5 75.5364 1.27614 75.3125 1 75.3125C0.723858 75.3125 0.5 75.5364 0.5 75.8125L1.5 75.8125ZM0.5 67.9375C0.5 68.2136 0.723858 68.4375 1 68.4375C1.27614 68.4375 1.5 68.2136 1.5 67.9375L0.5 67.9375ZM1.5 60.0625C1.5 59.7864 1.27614 59.5625 1 59.5625C0.723858 59.5625 0.5 59.7864 0.5 60.0625L1.5 60.0625ZM0.5 52.1875C0.5 52.4636 0.723858 52.6875 1 52.6875C1.27614 52.6875 1.5 52.4636 1.5 52.1875L0.5 52.1875ZM1.5 44.3125C1.5 44.0364 1.27614 43.8125 1 43.8125C0.723858 43.8125 0.5 44.0364 0.5 44.3125L1.5 44.3125ZM0.5 36.4375C0.5 36.7136 0.723858 36.9375 1 36.9375C1.27614 36.9375 1.5 36.7136 1.5 36.4375L0.5 36.4375ZM1.5 28.5625C1.5 28.2864 1.27614 28.0625 1 28.0625C0.723858 28.0625 0.5 28.2864 0.5 28.5625L1.5 28.5625ZM0.5 20.6875C0.5 20.9636 0.723858 21.1875 1 21.1875C1.27614 21.1875 1.5 20.9636 1.5 20.6875L0.5 20.6875ZM1.5 12.8125C1.5 12.5364 1.27614 12.3125 1 12.3125C0.723858 12.3125 0.5 12.5364 0.5 12.8125L1.5 12.8125ZM0.5 4.9375C0.5 5.21364 0.723858 5.4375 1 5.4375C1.27614 5.4375 1.5 5.21364 1.5 4.9375L0.5 4.9375ZM1.5 190L1.5 186.062L0.5 186.063L0.5 190L1.5 190ZM1.5 178.187L1.5 170.312L0.5 170.313L0.5 178.188L1.5 178.187ZM1.5 162.437L1.5 154.562L0.5 154.563L0.5 162.438L1.5 162.437ZM1.5 146.687L1.5 138.812L0.5 138.813L0.5 146.688L1.5 146.687ZM1.5 130.937L1.5 123.062L0.5 123.063L0.5 130.938L1.5 130.937ZM1.5 115.187L1.5 107.312L0.5 107.313L0.5 115.187L1.5 115.187ZM1.5 99.4375L1.5 91.5625L0.5 91.5625L0.5 99.4375L1.5 99.4375ZM1.5 83.6875L1.5 75.8125L0.5 75.8125L0.5 83.6875L1.5 83.6875ZM1.5 67.9375L1.5 60.0625L0.5 60.0625L0.5 67.9375L1.5 67.9375ZM1.5 52.1875L1.5 44.3125L0.5 44.3125L0.5 52.1875L1.5 52.1875ZM1.5 36.4375L1.5 28.5625L0.5 28.5625L0.5 36.4375L1.5 36.4375ZM1.5 20.6875L1.5 12.8125L0.5 12.8125L0.5 20.6875L1.5 20.6875ZM1.5 4.9375L1.5 1H0.5L0.5 4.9375L1.5 4.9375Z" fill="url(#paint0_linear_710_29756)"/>
<defs>
<linearGradient id="paint0_linear_710_29756" x1="0.999996" y1="1" x2="1" y2="190" gradientUnits="userSpaceOnUse">
<stop stop-color="#EAEAEA"/>
<stop offset="1" stop-color="#EAEAEA" stop-opacity="0"/>
</linearGradient>
</defs>
</svg>
