<svg width="2" height="100" viewBox="0 0 2 100" fill="none" xmlns="http://www.w3.org/2000/svg">
<path d="M1.5 1C1.5 0.723858 1.27614 0.5 1 0.5C0.723858 0.5 0.5 0.723858 0.5 1L1.5 1ZM0.500004 100L0.500004 100.5H1.5V100H0.500004ZM0.5 5.125C0.5 5.40114 0.723858 5.625 1 5.625C1.27614 5.625 1.5 5.40114 1.5 5.125H0.5ZM1.5 13.375C1.5 13.0989 1.27614 12.875 1 12.875C0.723858 12.875 0.500001 13.0989 0.500001 13.375H1.5ZM0.500001 21.625C0.500001 21.9011 0.723859 22.125 1 22.125C1.27614 22.125 1.5 21.9011 1.5 21.625H0.500001ZM1.5 29.875C1.5 29.5989 1.27614 29.375 1 29.375C0.723859 29.375 0.500001 29.5989 0.500001 29.875H1.5ZM0.500002 38.125C0.500002 38.4011 0.723859 38.625 1 38.625C1.27614 38.625 1.5 38.4011 1.5 38.125H0.500002ZM1.5 46.375C1.5 46.0989 1.27614 45.875 1 45.875C0.72386 45.875 0.500002 46.0989 0.500002 46.375H1.5ZM0.500002 54.625C0.500002 54.9011 0.72386 55.125 1 55.125C1.27614 55.125 1.5 54.9011 1.5 54.625H0.500002ZM1.5 62.875C1.5 62.5989 1.27615 62.375 1 62.375C0.72386 62.375 0.500003 62.5989 0.500003 62.875H1.5ZM0.500003 71.125C0.500003 71.4011 0.723861 71.625 1 71.625C1.27615 71.625 1.5 71.4011 1.5 71.125H0.500003ZM1.5 79.375C1.5 79.0989 1.27615 78.875 1 78.875C0.723861 78.875 0.500003 79.0989 0.500003 79.375H1.5ZM0.500004 87.625C0.500004 87.9011 0.723861 88.125 1 88.125C1.27615 88.125 1.5 87.9011 1.5 87.625H0.500004ZM1.5 95.875C1.5 95.5989 1.27615 95.375 1 95.375C0.723862 95.375 0.500004 95.5989 0.500004 95.875H1.5ZM0.5 1L0.5 5.125H1.5L1.5 1L0.5 1ZM0.500001 13.375L0.500001 21.625H1.5L1.5 13.375H0.500001ZM0.500001 29.875L0.500002 38.125H1.5L1.5 29.875H0.500001ZM0.500002 46.375L0.500002 54.625H1.5L1.5 46.375H0.500002ZM0.500003 62.875L0.500003 71.125H1.5L1.5 62.875H0.500003ZM0.500003 79.375L0.500004 87.625H1.5L1.5 79.375H0.500003ZM0.500004 95.875L0.500004 100H1.5L1.5 95.875H0.500004Z" fill="url(#paint0_linear_710_29754)"/>
<defs>
<linearGradient id="paint0_linear_710_29754" x1="1" y1="1" x2="1" y2="100" gradientUnits="userSpaceOnUse">
<stop stop-color="#EAEAEA"/>
<stop offset="1" stop-color="#EAEAEA" stop-opacity="0"/>
</linearGradient>
</defs>
</svg>
