<svg xmlns="http://www.w3.org/2000/svg" width="2" height="304" viewBox="0 0 2 304" fill="none">
  <path d="M1.5 1C1.5 0.723858 1.27614 0.5 1 0.5C0.723858 0.5 0.5 0.723858 0.5 1H1.5ZM0.5 304L0.5 304.5L1.5 304.5L1.5 304L0.5 304ZM1.5 300.013C1.5 299.737 1.27614 299.513 1 299.513C0.723858 299.513 0.5 299.737 0.5 300.013L1.5 300.013ZM0.5 292.039C0.5 292.316 0.723858 292.539 1 292.539C1.27614 292.539 1.5 292.316 1.5 292.039L0.5 292.039ZM1.5 284.066C1.5 283.79 1.27614 283.566 1 283.566C0.723858 283.566 0.5 283.79 0.5 284.066L1.5 284.066ZM0.5 276.092C0.5 276.368 0.723858 276.592 1 276.592C1.27614 276.592 1.5 276.368 1.5 276.092L0.5 276.092ZM1.5 268.118C1.5 267.842 1.27614 267.618 1 267.618C0.723858 267.618 0.5 267.842 0.5 268.118L1.5 268.118ZM0.5 260.145C0.5 260.421 0.723858 260.645 1 260.645C1.27614 260.645 1.5 260.421 1.5 260.145L0.5 260.145ZM1.5 252.171C1.5 251.895 1.27614 251.671 1 251.671C0.723858 251.671 0.5 251.895 0.5 252.171L1.5 252.171ZM0.5 244.197C0.5 244.474 0.723858 244.697 1 244.697C1.27614 244.697 1.5 244.474 1.5 244.197L0.5 244.197ZM1.5 236.224C1.5 235.948 1.27614 235.724 1 235.724C0.723858 235.724 0.5 235.948 0.5 236.224L1.5 236.224ZM0.5 228.25C0.5 228.526 0.723858 228.75 1 228.75C1.27614 228.75 1.5 228.526 1.5 228.25L0.5 228.25ZM1.5 220.276C1.5 220 1.27614 219.776 1 219.776C0.723858 219.776 0.5 220 0.5 220.276L1.5 220.276ZM0.5 212.303C0.5 212.579 0.723858 212.803 1 212.803C1.27614 212.803 1.5 212.579 1.5 212.303L0.5 212.303ZM1.5 204.329C1.5 204.053 1.27614 203.829 1 203.829C0.723858 203.829 0.5 204.053 0.5 204.329L1.5 204.329ZM0.5 196.355C0.5 196.631 0.723858 196.855 1 196.855C1.27614 196.855 1.5 196.631 1.5 196.355L0.5 196.355ZM1.5 188.382C1.5 188.105 1.27614 187.882 1 187.882C0.723858 187.882 0.5 188.105 0.5 188.382L1.5 188.382ZM0.5 180.408C0.5 180.684 0.723858 180.908 1 180.908C1.27614 180.908 1.5 180.684 1.5 180.408L0.5 180.408ZM1.5 172.434C1.5 172.158 1.27614 171.934 1 171.934C0.723858 171.934 0.5 172.158 0.5 172.434L1.5 172.434ZM0.5 164.461C0.5 164.737 0.723858 164.961 1 164.961C1.27614 164.961 1.5 164.737 1.5 164.461L0.5 164.461ZM1.5 156.487C1.5 156.211 1.27614 155.987 1 155.987C0.723858 155.987 0.5 156.211 0.5 156.487L1.5 156.487ZM0.5 148.513C0.5 148.789 0.723858 149.013 1 149.013C1.27614 149.013 1.5 148.789 1.5 148.513L0.5 148.513ZM1.5 140.539C1.5 140.263 1.27614 140.039 1 140.039C0.723858 140.039 0.5 140.263 0.5 140.539L1.5 140.539ZM0.5 132.566C0.5 132.842 0.723858 133.066 1 133.066C1.27614 133.066 1.5 132.842 1.5 132.566L0.5 132.566ZM1.5 124.592C1.5 124.316 1.27614 124.092 1 124.092C0.723858 124.092 0.5 124.316 0.5 124.592L1.5 124.592ZM0.5 116.618C0.5 116.895 0.723858 117.118 1 117.118C1.27614 117.118 1.5 116.895 1.5 116.618L0.5 116.618ZM1.5 108.645C1.5 108.369 1.27614 108.145 1 108.145C0.723858 108.145 0.5 108.369 0.5 108.645L1.5 108.645ZM0.5 100.671C0.5 100.947 0.723858 101.171 1 101.171C1.27614 101.171 1.5 100.947 1.5 100.671L0.5 100.671ZM1.5 92.6974C1.5 92.4213 1.27614 92.1974 1 92.1974C0.723858 92.1974 0.5 92.4213 0.5 92.6974L1.5 92.6974ZM0.5 84.7237C0.5 84.9999 0.723858 85.2237 1 85.2237C1.27614 85.2237 1.5 84.9999 1.5 84.7237L0.5 84.7237ZM1.5 76.7501C1.5 76.4739 1.27614 76.2501 1 76.2501C0.723858 76.2501 0.5 76.4739 0.5 76.7501L1.5 76.7501ZM0.5 68.7764C0.5 69.0525 0.723858 69.2764 1 69.2764C1.27614 69.2764 1.5 69.0525 1.5 68.7764L0.5 68.7764ZM1.5 60.8027C1.5 60.5266 1.27614 60.3027 1 60.3027C0.723858 60.3027 0.5 60.5266 0.5 60.8027L1.5 60.8027ZM0.5 52.829C0.5 53.1051 0.723858 53.329 1 53.329C1.27614 53.329 1.5 53.1051 1.5 52.829L0.5 52.829ZM1.5 44.8553C1.5 44.5792 1.27614 44.3553 1 44.3553C0.723858 44.3553 0.5 44.5792 0.5 44.8553L1.5 44.8553ZM0.5 36.8816C0.5 37.1578 0.723858 37.3816 1 37.3816C1.27614 37.3816 1.5 37.1578 1.5 36.8816L0.5 36.8816ZM1.5 28.9079C1.5 28.6318 1.27614 28.4079 1 28.4079C0.723858 28.4079 0.5 28.6318 0.5 28.9079L1.5 28.9079ZM0.5 20.9342C0.5 21.2104 0.723858 21.4342 1 21.4342C1.27614 21.4342 1.5 21.2104 1.5 20.9342L0.5 20.9342ZM1.5 12.9605C1.5 12.6844 1.27614 12.4605 1 12.4605C0.723858 12.4605 0.5 12.6844 0.5 12.9605L1.5 12.9605ZM0.5 4.98684C0.5 5.26299 0.723858 5.48685 1 5.48685C1.27614 5.48685 1.5 5.26299 1.5 4.98684L0.5 4.98684ZM1.5 304L1.5 300.013L0.5 300.013L0.5 304L1.5 304ZM1.5 292.039L1.5 284.066L0.5 284.066L0.5 292.039L1.5 292.039ZM1.5 276.092L1.5 268.118L0.5 268.118L0.5 276.092L1.5 276.092ZM1.5 260.145L1.5 252.171L0.5 252.171L0.5 260.145L1.5 260.145ZM1.5 244.197L1.5 236.224L0.5 236.224L0.5 244.197L1.5 244.197ZM1.5 228.25L1.5 220.276L0.5 220.276L0.5 228.25L1.5 228.25ZM1.5 212.303L1.5 204.329L0.5 204.329L0.5 212.303L1.5 212.303ZM1.5 196.355L1.5 188.382L0.5 188.382L0.5 196.355L1.5 196.355ZM1.5 180.408L1.5 172.434L0.5 172.434L0.5 180.408L1.5 180.408ZM1.5 164.461L1.5 156.487L0.5 156.487L0.5 164.461L1.5 164.461ZM1.5 148.513L1.5 140.539L0.5 140.539L0.5 148.513L1.5 148.513ZM1.5 132.566L1.5 124.592L0.5 124.592L0.5 132.566L1.5 132.566ZM1.5 116.618L1.5 108.645L0.5 108.645L0.5 116.618L1.5 116.618ZM1.5 100.671L1.5 92.6974L0.5 92.6974L0.5 100.671L1.5 100.671ZM1.5 84.7237L1.5 76.7501L0.5 76.7501L0.5 84.7237L1.5 84.7237ZM1.5 68.7764L1.5 60.8027L0.5 60.8027L0.5 68.7764L1.5 68.7764ZM1.5 52.829L1.5 44.8553L0.5 44.8553L0.5 52.829L1.5 52.829ZM1.5 36.8816L1.5 28.9079L0.5 28.9079L0.5 36.8816L1.5 36.8816ZM1.5 20.9342L1.5 12.9605L0.5 12.9605L0.5 20.9342L1.5 20.9342ZM1.5 4.98684L1.5 1H0.5L0.5 4.98684L1.5 4.98684Z" fill="url(#paint0_linear_710_29759)"/>
  <defs>
    <linearGradient id="paint0_linear_710_29759" x1="0.999993" y1="1" x2="1.00001" y2="304" gradientUnits="userSpaceOnUse">
      <stop stop-color="#EAEAEA"/>
      <stop offset="1" stop-color="#EAEAEA" stop-opacity="0"/>
    </linearGradient>
  </defs>
</svg>