<svg width="2" height="153" viewBox="0 0 2 153" fill="none" xmlns="http://www.w3.org/2000/svg">
<path d="M1.5 1C1.5 0.723858 1.27614 0.5 1 0.5C0.723858 0.5 0.5 0.723858 0.5 1H1.5ZM0.5 153L0.5 153.5L1.5 153.5L1.5 153L0.5 153ZM1.5 149.2C1.5 148.924 1.27614 148.7 1 148.7C0.723858 148.7 0.5 148.924 0.5 149.2L1.5 149.2ZM0.5 141.6C0.5 141.876 0.723858 142.1 1 142.1C1.27614 142.1 1.5 141.876 1.5 141.6L0.5 141.6ZM1.5 134C1.5 133.724 1.27614 133.5 1 133.5C0.723858 133.5 0.5 133.724 0.5 134L1.5 134ZM0.5 126.4C0.5 126.676 0.723858 126.9 1 126.9C1.27614 126.9 1.5 126.676 1.5 126.4L0.5 126.4ZM1.5 118.8C1.5 118.524 1.27614 118.3 1 118.3C0.723858 118.3 0.5 118.524 0.5 118.8L1.5 118.8ZM0.5 111.2C0.5 111.476 0.723858 111.7 1 111.7C1.27614 111.7 1.5 111.476 1.5 111.2L0.5 111.2ZM1.5 103.6C1.5 103.324 1.27614 103.1 1 103.1C0.723858 103.1 0.5 103.324 0.5 103.6L1.5 103.6ZM0.5 96C0.5 96.2761 0.723858 96.5 1 96.5C1.27614 96.5 1.5 96.2761 1.5 96L0.5 96ZM1.5 88.4C1.5 88.1239 1.27614 87.9 1 87.9C0.723858 87.9 0.5 88.1239 0.5 88.4L1.5 88.4ZM0.5 80.8C0.5 81.0761 0.723858 81.3 1 81.3C1.27614 81.3 1.5 81.0761 1.5 80.8L0.5 80.8ZM1.5 73.2C1.5 72.9239 1.27614 72.7 1 72.7C0.723858 72.7 0.5 72.9239 0.5 73.2L1.5 73.2ZM0.5 65.6C0.5 65.8761 0.723858 66.1 1 66.1C1.27614 66.1 1.5 65.8761 1.5 65.6L0.5 65.6ZM1.5 58C1.5 57.7239 1.27614 57.5 1 57.5C0.723858 57.5 0.5 57.7239 0.5 58L1.5 58ZM0.5 50.4C0.5 50.6762 0.723858 50.9 1 50.9C1.27614 50.9 1.5 50.6762 1.5 50.4L0.5 50.4ZM1.5 42.8C1.5 42.5239 1.27614 42.3 1 42.3C0.723858 42.3 0.5 42.5239 0.5 42.8L1.5 42.8ZM0.5 35.2C0.5 35.4762 0.723858 35.7 1 35.7C1.27614 35.7 1.5 35.4762 1.5 35.2L0.5 35.2ZM1.5 27.6C1.5 27.3239 1.27614 27.1 1 27.1C0.723858 27.1 0.5 27.3239 0.5 27.6L1.5 27.6ZM0.5 20C0.5 20.2762 0.723858 20.5 1 20.5C1.27614 20.5 1.5 20.2762 1.5 20L0.5 20ZM1.5 12.4C1.5 12.1239 1.27614 11.9 1 11.9C0.723858 11.9 0.5 12.1239 0.5 12.4L1.5 12.4ZM0.5 4.80001C0.5 5.07615 0.723858 5.30001 1 5.30001C1.27614 5.30001 1.5 5.07615 1.5 4.80001L0.5 4.80001ZM1.5 153L1.5 149.2L0.5 149.2L0.5 153L1.5 153ZM1.5 141.6L1.5 134L0.5 134L0.5 141.6L1.5 141.6ZM1.5 126.4L1.5 118.8L0.5 118.8L0.5 126.4L1.5 126.4ZM1.5 111.2L1.5 103.6L0.5 103.6L0.5 111.2L1.5 111.2ZM1.5 96L1.5 88.4L0.5 88.4L0.5 96L1.5 96ZM1.5 80.8L1.5 73.2L0.5 73.2L0.5 80.8L1.5 80.8ZM1.5 65.6L1.5 58L0.5 58L0.5 65.6L1.5 65.6ZM1.5 50.4L1.5 42.8L0.5 42.8L0.5 50.4L1.5 50.4ZM1.5 35.2L1.5 27.6L0.5 27.6L0.5 35.2L1.5 35.2ZM1.5 20L1.5 12.4L0.5 12.4L0.5 20L1.5 20ZM1.5 4.80001L1.5 1H0.5L0.5 4.80001L1.5 4.80001Z" fill="url(#paint0_linear_710_29755)"/>
<defs>
<linearGradient id="paint0_linear_710_29755" x1="0.999997" y1="1" x2="1" y2="153" gradientUnits="userSpaceOnUse">
<stop stop-color="#EAEAEA"/>
<stop offset="1" stop-color="#EAEAEA" stop-opacity="0"/>
</linearGradient>
</defs>
</svg>
