<svg width="2" height="243" viewBox="0 0 2 243" fill="none" xmlns="http://www.w3.org/2000/svg">
<path d="M1.5 1C1.5 0.723858 1.27614 0.5 1 0.5C0.723858 0.5 0.5 0.723858 0.5 1H1.5ZM0.5 243L0.5 243.5L1.5 243.5L1.5 243L0.5 243ZM1.5 238.967C1.5 238.691 1.27614 238.467 1 238.467C0.723858 238.467 0.5 238.691 0.5 238.967L1.5 238.967ZM0.5 230.9C0.5 231.176 0.723858 231.4 1 231.4C1.27614 231.4 1.5 231.176 1.5 230.9L0.5 230.9ZM1.5 222.833C1.5 222.557 1.27614 222.333 1 222.333C0.723858 222.333 0.5 222.557 0.5 222.833L1.5 222.833ZM0.5 214.767C0.5 215.043 0.723858 215.267 1 215.267C1.27614 215.267 1.5 215.043 1.5 214.767L0.5 214.767ZM1.5 206.7C1.5 206.424 1.27614 206.2 1 206.2C0.723858 206.2 0.5 206.424 0.5 206.7L1.5 206.7ZM0.5 198.633C0.5 198.909 0.723858 199.133 1 199.133C1.27614 199.133 1.5 198.909 1.5 198.633L0.5 198.633ZM1.5 190.567C1.5 190.291 1.27614 190.067 1 190.067C0.723858 190.067 0.5 190.291 0.5 190.567L1.5 190.567ZM0.5 182.5C0.5 182.776 0.723858 183 1 183C1.27614 183 1.5 182.776 1.5 182.5L0.5 182.5ZM1.5 174.433C1.5 174.157 1.27614 173.933 1 173.933C0.723858 173.933 0.5 174.157 0.5 174.433L1.5 174.433ZM0.5 166.367C0.5 166.643 0.723858 166.867 1 166.867C1.27614 166.867 1.5 166.643 1.5 166.367L0.5 166.367ZM1.5 158.3C1.5 158.024 1.27614 157.8 1 157.8C0.723858 157.8 0.5 158.024 0.5 158.3L1.5 158.3ZM0.5 150.233C0.5 150.509 0.723858 150.733 1 150.733C1.27614 150.733 1.5 150.509 1.5 150.233L0.5 150.233ZM1.5 142.167C1.5 141.891 1.27614 141.667 1 141.667C0.723858 141.667 0.5 141.891 0.5 142.167L1.5 142.167ZM0.5 134.1C0.5 134.376 0.723858 134.6 1 134.6C1.27614 134.6 1.5 134.376 1.5 134.1L0.5 134.1ZM1.5 126.033C1.5 125.757 1.27614 125.533 1 125.533C0.723858 125.533 0.5 125.757 0.5 126.033L1.5 126.033ZM0.5 117.967C0.5 118.243 0.723858 118.467 1 118.467C1.27614 118.467 1.5 118.243 1.5 117.967L0.5 117.967ZM1.5 109.9C1.5 109.624 1.27614 109.4 1 109.4C0.723858 109.4 0.5 109.624 0.5 109.9L1.5 109.9ZM0.5 101.833C0.5 102.109 0.723858 102.333 1 102.333C1.27614 102.333 1.5 102.109 1.5 101.833L0.5 101.833ZM1.5 93.7667C1.5 93.4905 1.27614 93.2667 1 93.2667C0.723858 93.2667 0.5 93.4905 0.5 93.7667L1.5 93.7667ZM0.5 85.7C0.5 85.9762 0.723858 86.2 1 86.2C1.27614 86.2 1.5 85.9762 1.5 85.7L0.5 85.7ZM1.5 77.6333C1.5 77.3572 1.27614 77.1333 1 77.1333C0.723858 77.1333 0.5 77.3572 0.5 77.6333L1.5 77.6333ZM0.5 69.5667C0.5 69.8428 0.723858 70.0667 1 70.0667C1.27614 70.0667 1.5 69.8428 1.5 69.5667L0.5 69.5667ZM1.5 61.5C1.5 61.2239 1.27614 61 1 61C0.723858 61 0.5 61.2239 0.5 61.5L1.5 61.5ZM0.5 53.4334C0.5 53.7095 0.723858 53.9334 1 53.9334C1.27614 53.9334 1.5 53.7095 1.5 53.4334L0.5 53.4334ZM1.5 45.3667C1.5 45.0905 1.27614 44.8667 1 44.8667C0.723858 44.8667 0.5 45.0905 0.5 45.3667L1.5 45.3667ZM0.5 37.3C0.5 37.5762 0.723858 37.8 1 37.8C1.27614 37.8 1.5 37.5762 1.5 37.3L0.5 37.3ZM1.5 29.2333C1.5 28.9572 1.27614 28.7333 1 28.7333C0.723858 28.7333 0.5 28.9572 0.5 29.2333L1.5 29.2333ZM0.5 21.1667C0.5 21.4428 0.723858 21.6667 1 21.6667C1.27614 21.6667 1.5 21.4428 1.5 21.1667L0.5 21.1667ZM1.5 13.1C1.5 12.8239 1.27614 12.6 1 12.6C0.723858 12.6 0.5 12.8239 0.5 13.1L1.5 13.1ZM0.5 5.03336C0.5 5.3095 0.723858 5.53336 1 5.53336C1.27614 5.53336 1.5 5.3095 1.5 5.03336L0.5 5.03336ZM1.5 243L1.5 238.967L0.5 238.967L0.5 243L1.5 243ZM1.5 230.9L1.5 222.833L0.5 222.833L0.5 230.9L1.5 230.9ZM1.5 214.767L1.5 206.7L0.5 206.7L0.5 214.767L1.5 214.767ZM1.5 198.633L1.5 190.567L0.5 190.567L0.5 198.633L1.5 198.633ZM1.5 182.5L1.5 174.433L0.5 174.433L0.5 182.5L1.5 182.5ZM1.5 166.367L1.5 158.3L0.5 158.3L0.5 166.367L1.5 166.367ZM1.5 150.233L1.5 142.167L0.5 142.167L0.5 150.233L1.5 150.233ZM1.5 134.1L1.5 126.033L0.5 126.033L0.5 134.1L1.5 134.1ZM1.5 117.967L1.5 109.9L0.5 109.9L0.5 117.967L1.5 117.967ZM1.5 101.833L1.5 93.7667L0.5 93.7667L0.5 101.833L1.5 101.833ZM1.5 85.7L1.5 77.6333L0.5 77.6333L0.5 85.7L1.5 85.7ZM1.5 69.5667L1.5 61.5L0.5 61.5L0.5 69.5667L1.5 69.5667ZM1.5 53.4334L1.5 45.3667L0.5 45.3667L0.5 53.4334L1.5 53.4334ZM1.5 37.3L1.5 29.2333L0.5 29.2333L0.5 37.3L1.5 37.3ZM1.5 21.1667L1.5 13.1L0.5 13.1L0.5 21.1667L1.5 21.1667ZM1.5 5.03336L1.5 1H0.5L0.5 5.03336L1.5 5.03336Z" fill="url(#paint0_linear_710_29758)"/>
<defs>
<linearGradient id="paint0_linear_710_29758" x1="0.999995" y1="1" x2="1" y2="243" gradientUnits="userSpaceOnUse">
<stop stop-color="#EAEAEA"/>
<stop offset="1" stop-color="#EAEAEA" stop-opacity="0"/>
</linearGradient>
</defs>
</svg>
