<svg width="2" height="213" viewBox="0 0 2 213" fill="none" xmlns="http://www.w3.org/2000/svg">
<path id="Line 55" d="M1.5 1C1.5 0.723858 1.27614 0.5 1 0.5C0.723858 0.5 0.5 0.723858 0.5 1H1.5ZM0.5 213L0.5 213.5L1.5 213.5L1.5 213L0.5 213ZM1.5 208.923C1.5 208.647 1.27614 208.423 1 208.423C0.723858 208.423 0.5 208.647 0.5 208.923L1.5 208.923ZM0.5 200.769C0.5 201.045 0.723858 201.269 1 201.269C1.27614 201.269 1.5 201.045 1.5 200.769L0.5 200.769ZM1.5 192.615C1.5 192.339 1.27614 192.115 1 192.115C0.723858 192.115 0.5 192.339 0.5 192.615L1.5 192.615ZM0.5 184.462C0.5 184.738 0.723858 184.962 1 184.962C1.27614 184.962 1.5 184.738 1.5 184.462L0.5 184.462ZM1.5 176.308C1.5 176.032 1.27614 175.808 1 175.808C0.723858 175.808 0.5 176.032 0.5 176.308L1.5 176.308ZM0.5 168.154C0.5 168.43 0.723858 168.654 1 168.654C1.27614 168.654 1.5 168.43 1.5 168.154L0.5 168.154ZM1.5 160C1.5 159.724 1.27614 159.5 1 159.5C0.723858 159.5 0.5 159.724 0.5 160L1.5 160ZM0.5 151.846C0.5 152.122 0.723858 152.346 1 152.346C1.27614 152.346 1.5 152.122 1.5 151.846L0.5 151.846ZM1.5 143.692C1.5 143.416 1.27614 143.192 1 143.192C0.723858 143.192 0.5 143.416 0.5 143.692L1.5 143.692ZM0.5 135.538C0.5 135.815 0.723858 136.038 1 136.038C1.27614 136.038 1.5 135.815 1.5 135.538L0.5 135.538ZM1.5 127.385C1.5 127.108 1.27614 126.885 1 126.885C0.723858 126.885 0.5 127.108 0.5 127.385L1.5 127.385ZM0.5 119.231C0.5 119.507 0.723858 119.731 1 119.731C1.27614 119.731 1.5 119.507 1.5 119.231L0.5 119.231ZM1.5 111.077C1.5 110.801 1.27614 110.577 1 110.577C0.723858 110.577 0.5 110.801 0.5 111.077L1.5 111.077ZM0.5 102.923C0.5 103.199 0.723858 103.423 1 103.423C1.27614 103.423 1.5 103.199 1.5 102.923L0.5 102.923ZM1.5 94.7692C1.5 94.4931 1.27614 94.2692 1 94.2692C0.723858 94.2692 0.5 94.4931 0.5 94.7692L1.5 94.7692ZM0.5 86.6154C0.5 86.8915 0.723858 87.1154 1 87.1154C1.27614 87.1154 1.5 86.8915 1.5 86.6154L0.5 86.6154ZM1.5 78.4615C1.5 78.1854 1.27614 77.9615 1 77.9615C0.723858 77.9615 0.5 78.1854 0.5 78.4615L1.5 78.4615ZM0.5 70.3077C0.5 70.5838 0.723858 70.8077 1 70.8077C1.27614 70.8077 1.5 70.5838 1.5 70.3077L0.5 70.3077ZM1.5 62.1539C1.5 61.8777 1.27614 61.6539 1 61.6539C0.723858 61.6539 0.5 61.8777 0.5 62.1539L1.5 62.1539ZM0.5 54C0.5 54.2762 0.723858 54.5 1 54.5C1.27614 54.5 1.5 54.2762 1.5 54L0.5 54ZM1.5 45.8462C1.5 45.57 1.27614 45.3462 1 45.3462C0.723858 45.3462 0.5 45.57 0.5 45.8462L1.5 45.8462ZM0.5 37.6923C0.5 37.9685 0.723858 38.1923 1 38.1923C1.27614 38.1923 1.5 37.9685 1.5 37.6923L0.5 37.6923ZM1.5 29.5385C1.5 29.2624 1.27614 29.0385 1 29.0385C0.723858 29.0385 0.5 29.2624 0.5 29.5385L1.5 29.5385ZM0.5 21.3847C0.5 21.6608 0.723858 21.8847 1 21.8847C1.27614 21.8847 1.5 21.6608 1.5 21.3847L0.5 21.3847ZM1.5 13.2308C1.5 12.9547 1.27614 12.7308 1 12.7308C0.723858 12.7308 0.5 12.9547 0.5 13.2308L1.5 13.2308ZM0.5 5.07698C0.5 5.35312 0.723858 5.57698 1 5.57698C1.27614 5.57698 1.5 5.35312 1.5 5.07698L0.5 5.07698ZM1.5 213L1.5 208.923L0.5 208.923L0.5 213L1.5 213ZM1.5 200.769L1.5 192.615L0.5 192.615L0.5 200.769L1.5 200.769ZM1.5 184.462L1.5 176.308L0.5 176.308L0.5 184.462L1.5 184.462ZM1.5 168.154L1.5 160L0.5 160L0.5 168.154L1.5 168.154ZM1.5 151.846L1.5 143.692L0.5 143.692L0.5 151.846L1.5 151.846ZM1.5 135.538L1.5 127.385L0.5 127.385L0.5 135.538L1.5 135.538ZM1.5 119.231L1.5 111.077L0.5 111.077L0.5 119.231L1.5 119.231ZM1.5 102.923L1.5 94.7692L0.5 94.7692L0.5 102.923L1.5 102.923ZM1.5 86.6154L1.5 78.4615L0.5 78.4615L0.5 86.6154L1.5 86.6154ZM1.5 70.3077L1.5 62.1539L0.5 62.1539L0.5 70.3077L1.5 70.3077ZM1.5 54L1.5 45.8462L0.5 45.8462L0.5 54L1.5 54ZM1.5 37.6923L1.5 29.5385L0.5 29.5385L0.5 37.6923L1.5 37.6923ZM1.5 21.3847L1.5 13.2308L0.5 13.2308L0.5 21.3847L1.5 21.3847ZM1.5 5.07698L1.5 1H0.5L0.5 5.07698L1.5 5.07698Z" fill="url(#paint0_linear_710_29757)"/>
<defs>
<linearGradient id="paint0_linear_710_29757" x1="0.999995" y1="1" x2="1" y2="213" gradientUnits="userSpaceOnUse">
<stop stop-color="#EAEAEA"/>
<stop offset="1" stop-color="#EAEAEA" stop-opacity="0"/>
</linearGradient>
</defs>
</svg>
