<svg width="50" height="50" viewBox="0 0 50 50" fill="none" xmlns="http://www.w3.org/2000/svg">
<path d="M27.3473 27.1281L26.0213 30.826C25.965 30.9359 25.965 31.0503 26.0213 31.1602L28.3396 37.5446L30.9872 35.9749L27.7849 27.1281C27.7329 26.9039 27.4556 26.9039 27.3473 27.1281Z" fill="#12AAFF"/>
<path d="M29.9949 20.858C29.9385 20.6338 29.6655 20.6338 29.5529 20.858L28.2269 24.5559C28.1706 24.6658 28.1706 24.7801 28.2269 24.8901L31.9795 35.3637L34.6271 33.794L29.9949 20.858Z" fill="#12AAFF"/>
<path d="M25.25 12.7368C25.3063 12.7368 25.3583 12.7368 25.4147 12.794L35.5674 18.7299C35.6757 18.7871 35.732 18.897 35.732 19.0641V30.9359C35.732 31.0459 35.6757 31.2173 35.5674 31.2701L25.4147 37.206C25.3583 37.2632 25.3063 37.2632 25.25 37.2632C25.1937 37.2632 25.1417 37.2632 25.0853 37.206L14.9326 31.2701C14.8243 31.2129 14.768 31.103 14.768 30.9359V19.0641C14.768 18.9541 14.8243 18.7827 14.9326 18.7299L25.0853 12.794C25.1373 12.7368 25.1937 12.7368 25.25 12.7368ZM25.25 11C24.8643 11 24.5307 11.1099 24.2014 11.2814L14.0486 17.2173C13.3857 17.6087 13 18.2814 13 19.0641V30.9359C13 31.6658 13.3857 32.3913 14.0486 32.7827L24.2014 38.7186C24.5307 38.8857 24.8643 39 25.25 39C25.6357 39 25.9693 38.8901 26.2986 38.7186L36.4514 32.7827C37.1143 32.3913 37.5 31.7186 37.5 30.9359V19.0641C37.5 18.3342 37.1143 17.6087 36.4514 17.2173L26.3506 11.2814C26.0213 11.1143 25.6877 11 25.302 11H25.25Z" fill="#12AAFF"/>
<path d="M18.5725 35.3593L19.5085 32.7827L21.3848 34.3524L19.6212 36.032L18.5725 35.3593Z" fill="#12AAFF"/>
<path d="M24.4224 18.2242H21.8268C21.6621 18.2242 21.4411 18.3342 21.3848 18.5057L15.8686 33.8467L18.5162 35.4165L24.587 18.5584C24.6434 18.3913 24.5307 18.2242 24.366 18.2242H24.4224Z" fill="#12AAFF"/>
<path d="M28.8899 18.2242H26.2943C26.1296 18.2242 25.9086 18.3342 25.8523 18.5057L19.5648 35.9749L22.2124 37.5446L29.0546 18.5057C29.1109 18.3386 28.9982 18.1715 28.8336 18.1715L28.8899 18.2242Z" fill="#12AAFF"/>
</svg>
