<svg width="50" height="50" viewBox="0 0 50 50" fill="none" xmlns="http://www.w3.org/2000/svg">
<path d="M17.7133 15.318L25.2468 11L32.7803 15.318L29.9536 16.836L25.2468 14.1508L20.4176 16.836L17.7133 15.318ZM32.6644 20.682L29.9536 19.164L25.2468 21.8492L20.4176 19.164L17.7068 20.682V23.8328L22.4201 26.518V32.0032L25.1309 33.636L27.8417 32.0032V26.6392L32.5549 23.954V20.6884H32.6644V20.682ZM32.6644 29.318V26.1672L29.9536 27.8V30.8296L32.6644 29.318ZM34.6669 30.364L29.9601 33.0492V36.2L37.5 31.882V23.2524L34.6733 25L34.6669 30.364ZM31.9561 18.0032L34.6669 19.636V22.7868L37.3777 21.154V18.0032L34.6669 16.3704L31.9561 18.0032ZM22.4201 34.2164V37.3672L25.1309 39L27.8417 37.3672V34.2164L25.1309 35.8492L22.4201 34.2164ZM17.7068 29.318L20.4176 30.836V27.6852L17.7068 26.0524V29.318ZM22.4201 18.0032L25.1309 19.636L27.9576 18.0032L25.2468 16.3704L22.4201 18.0032ZM15.7108 19.636L18.5375 18.0032L15.7108 16.3704L13 18.0032V21.154L15.7108 22.7868V19.636ZM15.7108 25L13 23.3672V31.9968L20.5399 36.3148V33.164L15.8267 30.4788V24.9936L15.7108 25Z" fill="#F0B90B"/>
</svg>
