<svg width="50" height="50" viewBox="0 0 50 50" fill="none" xmlns="http://www.w3.org/2000/svg">
<path d="M33.5562 20.9539C34.9713 20.8789 35.8913 20.5927 36.9734 19.9981C38.3962 19.2166 39 16.7643 39 16.7643C35.5062 19.1119 30.7296 19.6085 30.7296 19.6085C29.3064 21.8898 27.9951 23.2252 26.898 23.9999C26.7175 23.895 26.5554 23.7614 26.4183 23.6044C26.0785 23.1566 26.0391 22.7015 26.05 22.6243C26.0609 22.5471 26.1406 22.422 26.3218 22.367C26.3833 22.3452 26.4491 22.3383 26.5137 22.3469C26.5784 22.3556 26.6401 22.3795 26.6937 22.4166C26.6407 22.1006 26.6112 21.9494 26.4255 21.7927C26.2529 21.6478 25.939 21.6257 25.939 21.6257C25.7813 21.4985 25.5921 21.4162 25.3914 21.3873C24.8641 21.3137 24.5158 21.5403 24.2684 21.7706C23.9382 22.078 23.9124 22.6509 23.6746 23.3087C23.5678 23.5991 23.36 23.8417 23.0889 23.9922C21.9945 23.2157 20.6882 21.8816 19.2699 19.6094C19.2699 19.6094 14.4933 19.1128 11 16.7652C11 16.7652 11.6034 19.2176 13.0261 19.999C14.1087 20.5936 15.0287 20.8798 16.4434 20.9548C16.4434 20.9548 14.5359 21.1178 12.344 20.0649C12.344 20.0649 13.5761 22.0004 14.7357 22.6324C15.8953 23.2645 17.3434 23.5141 18.3739 23.4631C18.3739 23.4631 16.5815 23.8933 15.0921 23.2645C15.0921 23.2645 16.6567 25.3177 19.4597 25.2509C19.4597 25.2509 18.5506 25.4798 17.7031 25.3285C17.7031 25.3285 18.9927 26.4179 20.0585 26.5972C20.0585 26.5972 20.4889 26.6825 21.3785 26.5863C21.1043 26.7559 20.7893 26.8487 20.4667 26.8549C20.4667 26.8549 21.3771 27.3967 22.0548 27.4558C22.2344 27.4677 22.4148 27.4604 22.5929 27.4342C22.4618 27.5135 22.3169 27.5674 22.1658 27.5931C22.1658 27.5931 23.0694 27.9141 23.6606 27.6342C23.0042 29.6174 22.5204 30.212 22.5204 30.212L22.6944 30.4188C22.7123 30.4405 22.7352 30.4577 22.761 30.4691C22.7868 30.4805 22.815 30.4857 22.8432 30.4842C22.8714 30.4828 22.8989 30.4749 22.9235 30.461C22.948 30.4471 22.969 30.4277 22.9847 30.4043L23.3743 29.8716L22.9181 30.6964L23.1097 30.8874C23.1296 30.9075 23.1539 30.9226 23.1806 30.9317C23.2074 30.9407 23.2359 30.9434 23.2639 30.9395C23.2919 30.9356 23.3186 30.9252 23.3419 30.9092C23.3651 30.8932 23.3843 30.872 23.3978 30.8472L23.6529 30.4242L23.314 31.1985L23.5233 31.3705C23.545 31.3886 23.5707 31.4014 23.5982 31.4079C23.6258 31.4143 23.6545 31.4142 23.682 31.4077C23.7095 31.4011 23.7351 31.3882 23.7567 31.3699C23.7783 31.3517 23.7953 31.3287 23.8064 31.3028L23.9631 30.9754L23.7706 31.5939L23.9971 31.7416C24.0206 31.7568 24.0474 31.7663 24.0752 31.7695C24.1031 31.7727 24.1313 31.7693 24.1576 31.7598C24.1839 31.7503 24.2077 31.7348 24.227 31.7145C24.2463 31.6943 24.2607 31.6699 24.2689 31.6432L24.4501 31.1222L24.3169 31.8264C24.3071 31.8787 24.3127 31.9328 24.3331 31.982C24.3534 32.0311 24.3876 32.0734 24.4315 32.1036L24.8274 32.314L24.9805 31.3208L25.1332 32.314L25.5295 32.1036C25.5735 32.0734 25.6077 32.0311 25.628 31.982C25.6483 31.9328 25.6539 31.8787 25.6441 31.8264L25.5159 31.1222L25.6971 31.6432C25.7054 31.6699 25.7197 31.6943 25.739 31.7145C25.7583 31.7348 25.7821 31.7503 25.8084 31.7598C25.8348 31.7693 25.863 31.7727 25.8908 31.7695C25.9187 31.7663 25.9454 31.7568 25.9689 31.7416L26.1954 31.5939L26.0029 30.9754L26.1596 31.3028C26.1707 31.3287 26.1877 31.3517 26.2093 31.3699C26.2309 31.3882 26.2565 31.4011 26.2841 31.4077C26.3116 31.4142 26.3403 31.4143 26.3678 31.4079C26.3954 31.4014 26.421 31.3886 26.4427 31.3705L26.652 31.1985L26.3127 30.4242L26.5682 30.8472C26.5817 30.872 26.6009 30.8932 26.6242 30.9092C26.6474 30.9252 26.6741 30.9356 26.7021 30.9395C26.7301 30.9434 26.7586 30.9407 26.7854 30.9317C26.8122 30.9226 26.8364 30.9075 26.8563 30.8874L27.0479 30.6964L26.5881 29.8721L26.9777 30.4048C26.9934 30.4283 27.0144 30.4478 27.039 30.4617C27.0636 30.4756 27.0912 30.4836 27.1194 30.485C27.1477 30.4864 27.1759 30.4812 27.2018 30.4698C27.2277 30.4584 27.2505 30.441 27.2685 30.4192L27.4424 30.2125C27.4424 30.2125 26.9568 29.6161 26.2987 27.6238V27.6188C26.8875 27.9303 27.8311 27.5953 27.8311 27.5953C27.6801 27.5696 27.5353 27.5157 27.4044 27.4364C27.5823 27.4627 27.7626 27.47 27.9421 27.4581C28.6215 27.3981 29.5302 26.8572 29.5302 26.8572C29.2075 26.851 28.8925 26.7582 28.6183 26.5886C29.508 26.6847 29.9383 26.5994 29.9383 26.5994C31.0064 26.4188 32.2938 25.3308 32.2938 25.3308C31.4462 25.482 30.5371 25.2532 30.5371 25.2532C33.3401 25.3186 34.9051 23.2667 34.9051 23.2667C33.4158 23.8956 31.6234 23.4654 31.6234 23.4654C32.6534 23.5164 34.102 23.2663 35.2612 22.6347C36.4203 22.0031 37.6556 20.0645 37.6556 20.0645C35.4636 21.1169 33.5562 20.9539 33.5562 20.9539Z" fill="#FFE09D"/>
<path d="M35.4487 23.673C35.412 23.7213 34.9323 24.3376 34.0499 24.9141C34.0282 29.8698 29.9768 33.8941 25 33.8941C20.0232 33.8941 15.9714 29.8694 15.9496 24.9141C15.0672 24.3376 14.588 23.7213 14.5508 23.673L14.2134 23.2297C14.1308 23.7739 14.0895 24.3235 14.0897 24.8739C14.1083 27.7457 15.2659 30.4935 17.3099 32.5176C19.354 34.5417 22.1184 35.6778 24.9998 35.6778C27.8812 35.6778 30.6456 34.5417 32.6896 32.5176C34.7336 30.4935 35.8913 27.7457 35.9098 24.8739C35.91 24.3236 35.8688 23.7739 35.7866 23.2297L35.4487 23.673Z" fill="#FFE09D"/>
<path d="M16.5924 18.404C17.2669 18.5769 17.8675 18.6988 18.3341 18.7819C19.1805 17.8591 20.2105 17.1221 21.3584 16.6178C22.5064 16.1136 23.7471 15.8532 25.0016 15.8532C26.2561 15.8532 27.4968 16.1136 28.6447 16.6178C29.7927 17.1221 30.8227 17.8591 31.6691 18.7819C32.1357 18.6988 32.7363 18.5769 33.4108 18.404C33.5082 18.3787 33.6087 18.3521 33.7115 18.3241C33.4059 17.9222 33.0729 17.5416 32.715 17.1851C31.702 16.1753 30.4993 15.3743 29.1757 14.8278C27.8521 14.2813 26.4334 14 25.0007 14C23.568 14 22.1493 14.2813 20.8256 14.8278C19.502 15.3743 18.2993 16.1753 17.2863 17.1851C16.9284 17.5416 16.5955 17.9222 16.2898 18.3241C16.3926 18.3521 16.4932 18.3787 16.5924 18.404Z" fill="#FFE09D"/>
</svg>
