<svg width="50" height="50" viewBox="0 0 50 50" fill="none" xmlns="http://www.w3.org/2000/svg">
<path d="M31.6867 20.9922C31.2115 20.7206 30.6005 20.7206 30.0574 20.9922L26.2559 23.2324L23.6762 24.658L19.9426 26.8982C19.4674 27.1697 18.8564 27.1697 18.3133 26.8982L15.3943 25.1332C14.9191 24.8616 14.5796 24.3185 14.5796 23.7076V20.3133C14.5796 19.7702 14.8512 19.2272 15.3943 18.8877L18.3133 17.1906C18.7885 16.9191 19.3995 16.9191 19.9426 17.1906L22.8616 18.9556C23.3368 19.2272 23.6762 19.7702 23.6762 20.3812V22.6214L26.2559 21.1279V18.8198C26.2559 18.2768 25.9843 17.7337 25.4413 17.3943L20.0104 14.2037C19.5352 13.9321 18.9243 13.9321 18.3812 14.2037L12.8146 17.4621C12.2715 17.7337 12 18.2768 12 18.8198V25.201C12 25.7441 12.2715 26.2872 12.8146 26.6266L18.3133 29.8172C18.7885 30.0888 19.3995 30.0888 19.9426 29.8172L23.6762 27.6449L26.2559 26.1514L29.9896 23.9791C30.4648 23.7076 31.0757 23.7076 31.6188 23.9791L34.5379 25.6762C35.0131 25.9478 35.3525 26.4909 35.3525 27.1018V30.4961C35.3525 31.0392 35.0809 31.5822 34.5379 31.9217L31.6867 33.6188C31.2115 33.8903 30.6005 33.8903 30.0574 33.6188L27.1384 31.9217C26.6632 31.6501 26.3238 31.107 26.3238 30.4961V28.3238L23.7441 29.8172V32.0574C23.7441 32.6005 24.0157 33.1436 24.5587 33.483L30.0574 36.6736C30.5326 36.9452 31.1436 36.9452 31.6867 36.6736L37.1854 33.483C37.6606 33.2115 38 32.6684 38 32.0574V25.6084C38 25.0653 37.7285 24.5222 37.1854 24.1828L31.6867 20.9922Z" fill="#8247E5"/>
</svg>
