<svg width="50" height="50" viewBox="0 0 50 50" fill="none" xmlns="http://www.w3.org/2000/svg">
<path fill-rule="evenodd" clip-rule="evenodd" d="M27.4416 25.405C27.3052 25.4157 26.6006 25.4596 25.029 25.4596C23.7789 25.4596 22.8914 25.4205 22.58 25.405C17.7491 25.1832 14.1432 24.3054 14.1432 23.2543C14.1432 22.2032 17.7491 21.3266 22.58 21.1012V24.5308C22.8959 24.5545 23.8005 24.6102 25.0506 24.6102C26.5506 24.6102 27.3018 24.545 27.437 24.5319V21.1036C32.2577 21.3278 35.8556 22.2056 35.8556 23.2543C35.8556 24.303 32.2589 25.1808 27.437 25.4039L27.4416 25.405ZM27.4416 20.7489V17.6799H34.1692V13H15.8524V17.6799H22.5789V20.7477C17.1116 21.0098 13 22.1404 13 23.4951C13 24.8499 17.1116 25.9792 22.5789 26.2426V36.0769H27.4405V26.239C32.8953 25.9768 37 24.8475 37 23.4939C37 22.1404 32.8987 21.011 27.4405 20.7477L27.4416 20.7489Z" fill="#50AF95"/>
</svg>
