<svg width="15" height="15" viewBox="0 0 15 15" fill="none" xmlns="http://www.w3.org/2000/svg">
<g id="Group 1707478816">
<path id="Vector" d="M11.3 0H4.10002C2.12022 0 0.5 1.6195 0.5 3.6V10.8C0.5 12.7798 2.12022 14.4 4.10002 14.4H11.3C13.2798 14.4 14.9 12.7798 14.9 10.8V3.6C14.9 1.6195 13.2798 0 11.3 0ZM7.70002 10.1999C6.04292 10.1999 4.69992 8.8564 4.69992 7.2C4.69992 5.5429 6.04292 4.1999 7.70002 4.1999C9.35632 4.1999 10.7 5.5429 10.7 7.2C10.7 8.8564 9.35632 10.1999 7.70002 10.1999ZM11.6 4.1999C11.1025 4.1999 10.7 3.7969 10.7 3.2999C10.7 2.803 11.1025 2.3999 11.6 2.3999C12.0976 2.3999 12.5 2.803 12.5 3.2999C12.5 3.7969 12.0976 4.1999 11.6 4.1999Z" fill="#E13189"/>
</g>
</svg>
