<svg width="21" height="16" viewBox="0 0 21 16" fill="none" xmlns="http://www.w3.org/2000/svg">
<g id="LOGO 1 SVG">
<g id="Vector">
<path d="M16.6116 4.96705C17.6223 4.91352 18.2795 4.70907 19.0524 4.28438C20.0687 3.72618 20.5 1.9745 20.5 1.9745C18.0044 3.65136 14.5926 4.00608 14.5926 4.00608C13.576 5.63554 12.6393 6.58942 11.8557 7.14278C11.7268 7.06788 11.611 6.97245 11.513 6.86029C11.2704 6.5404 11.2422 6.21535 11.25 6.1602C11.2578 6.10506 11.3147 6.01574 11.4441 5.97639C11.488 5.96083 11.535 5.95593 11.5812 5.9621C11.6274 5.96827 11.6715 5.98533 11.7098 6.01187C11.6719 5.78614 11.6509 5.67811 11.5182 5.56621C11.3949 5.46269 11.1707 5.44689 11.1707 5.44689C11.0581 5.35608 10.9229 5.29725 10.7795 5.27663C10.4029 5.22406 10.1541 5.38595 9.97746 5.55041C9.7416 5.77001 9.72315 6.17923 9.55329 6.64907C9.47703 6.85652 9.32858 7.02977 9.13494 7.1373C8.35324 6.58264 7.42011 5.62974 6.40708 4.00673C6.40708 4.00673 2.99523 3.65201 0.5 1.97515C0.5 1.97515 0.93097 3.72682 1.94725 4.28502C2.72053 4.70972 3.37767 4.91417 4.38812 4.9677C4.38812 4.9677 3.02564 5.08411 1.45998 4.3321C1.45998 4.3321 2.34004 5.71455 3.16833 6.16601C3.99662 6.61747 5.03101 6.7958 5.76709 6.75936C5.76709 6.75936 4.4868 7.06668 3.42296 6.61747C3.42296 6.61747 4.54051 8.08408 6.54264 8.03635C6.54264 8.03635 5.89328 8.19985 5.28791 8.09182C5.28791 8.09182 6.20906 8.86995 6.97038 8.99797C6.97038 8.99797 7.27775 9.05892 7.91321 8.99023C7.71736 9.11138 7.49236 9.17767 7.2619 9.1821C7.2619 9.1821 7.91224 9.56907 8.39627 9.61131C8.52458 9.61979 8.65344 9.6146 8.78065 9.59583C8.68702 9.65247 8.5835 9.69099 8.47554 9.70934C8.47554 9.70934 9.12102 9.93862 9.54326 9.73869C9.07443 11.1553 8.72888 11.58 8.72888 11.58L8.85312 11.7277C8.86596 11.7432 8.88226 11.7555 8.90071 11.7636C8.91917 11.7718 8.93927 11.7755 8.95942 11.7745C8.97957 11.7735 8.99921 11.7678 9.01676 11.7579C9.03431 11.748 9.0493 11.7341 9.06052 11.7174L9.33877 11.3369L9.01296 11.926L9.14982 12.0624C9.16399 12.0768 9.18133 12.0876 9.20045 12.0941C9.21958 12.1005 9.23995 12.1024 9.25995 12.0996C9.27995 12.0969 9.29901 12.0894 9.31562 12.078C9.33223 12.0666 9.34592 12.0514 9.3556 12.0337L9.53776 11.7316L9.29574 12.2846L9.44522 12.4075C9.46072 12.4204 9.47904 12.4296 9.49872 12.4342C9.5184 12.4388 9.53889 12.4387 9.55855 12.434C9.57821 12.4293 9.59649 12.4201 9.61193 12.4071C9.62736 12.3941 9.63953 12.3776 9.64744 12.3591L9.75939 12.1253L9.62188 12.5671L9.78366 12.6726C9.80045 12.6834 9.81954 12.6902 9.83943 12.6925C9.85932 12.6948 9.87947 12.6924 9.89828 12.6856C9.9171 12.6788 9.93407 12.6677 9.94786 12.6532C9.96166 12.6388 9.9719 12.6213 9.97779 12.6023L10.1072 12.2301L10.0121 12.7332C10.0051 12.7705 10.0091 12.8091 10.0236 12.8442C10.0381 12.8794 10.0626 12.9096 10.0939 12.9312L10.3767 13.0814L10.4861 12.372L10.5951 13.0814L10.8782 12.9312C10.9096 12.9096 10.934 12.8794 10.9486 12.8442C10.9631 12.8091 10.9671 12.7705 10.9601 12.7332L10.8685 12.2301L10.9979 12.6023C11.0038 12.6213 11.0141 12.6388 11.0279 12.6532C11.0417 12.6677 11.0586 12.6788 11.0775 12.6856C11.0963 12.6924 11.1164 12.6948 11.1363 12.6925C11.1562 12.6902 11.1753 12.6834 11.1921 12.6726L11.3539 12.5671L11.2163 12.1253L11.3283 12.3591C11.3362 12.3776 11.3484 12.3941 11.3638 12.4071C11.3792 12.4201 11.3975 12.4293 11.4172 12.434C11.4368 12.4387 11.4573 12.4388 11.477 12.4342C11.4967 12.4296 11.515 12.4204 11.5305 12.4075L11.68 12.2846L11.4377 11.7316L11.6201 12.0337C11.6298 12.0514 11.6435 12.0666 11.6601 12.078C11.6767 12.0894 11.6958 12.0969 11.7158 12.0996C11.7358 12.1024 11.7562 12.1005 11.7753 12.0941C11.7944 12.0876 11.8117 12.0768 11.8259 12.0624L11.9628 11.926L11.6344 11.3372L11.9126 11.7177C11.9238 11.7345 11.9388 11.7484 11.9564 11.7583C11.974 11.7683 11.9937 11.774 12.0139 11.775C12.0341 11.776 12.0542 11.7723 12.0727 11.7641C12.0912 11.756 12.1075 11.7436 12.1203 11.728L12.2446 11.5803C12.2446 11.5803 11.8977 11.1543 11.4276 9.73127V9.72772C11.8482 9.95023 12.5222 9.71096 12.5222 9.71096C12.4143 9.69256 12.3109 9.65405 12.2174 9.59745C12.3445 9.6162 12.4733 9.62139 12.6015 9.61292C13.0868 9.57003 13.7358 9.18371 13.7358 9.18371C13.5054 9.17928 13.2804 9.113 13.0845 8.99184C13.72 9.06053 14.0274 8.99958 14.0274 8.99958C14.7903 8.87059 15.7098 8.09343 15.7098 8.09343C15.1045 8.20146 14.4551 8.03796 14.4551 8.03796C16.4572 8.08472 17.5751 6.61908 17.5751 6.61908C16.5113 7.06829 15.231 6.76097 15.231 6.76097C15.9667 6.79741 17.0014 6.61876 17.8294 6.16762C18.6574 5.71648 19.5397 4.33178 19.5397 4.33178C17.974 5.08347 16.6116 4.96705 16.6116 4.96705Z" fill="#D9B06E"/>
<path d="M17.9634 6.90931C17.9372 6.94381 17.5945 7.38399 16.9642 7.79579C16.9487 11.3356 14.0549 14.2101 10.5 14.2101C6.94514 14.2101 4.05098 11.3353 4.03544 7.79579C3.40517 7.38399 3.06285 6.94381 3.03632 6.90931L2.79527 6.59264C2.73632 6.98136 2.70679 7.37395 2.70694 7.76709C2.7202 9.81834 3.54709 11.7811 5.0071 13.2269C6.46711 14.6727 8.44169 15.4841 10.4998 15.4841C12.558 15.4841 14.5326 14.6727 15.9926 13.2269C17.4526 11.7811 18.2795 9.81834 18.2927 7.76709C18.2928 7.37397 18.2634 6.98139 18.2047 6.59264L17.9634 6.90931Z" fill="#D9B06E"/>
<path d="M4.49456 3.14572C4.97633 3.26923 5.40536 3.3563 5.73862 3.41563C6.3432 2.75647 7.07891 2.23004 7.89887 1.86988C8.71883 1.50971 9.60507 1.3237 10.5011 1.3237C11.3972 1.3237 12.2834 1.50971 13.1034 1.86988C13.9234 2.23004 14.6591 2.75647 15.2636 3.41563C15.5969 3.3563 16.0259 3.26923 16.5077 3.14572C16.5773 3.12767 16.6491 3.10864 16.7225 3.08865C16.5042 2.80154 16.2664 2.5297 16.0107 2.27505C15.2871 1.55378 14.4281 0.981625 13.4826 0.59127C12.5372 0.200914 11.5239 0 10.5005 0C9.47712 0 8.46377 0.200914 7.51832 0.59127C6.57286 0.981625 5.71382 1.55378 4.99024 2.27505C4.73458 2.5297 4.49675 2.80154 4.27843 3.08865C4.35188 3.10864 4.4237 3.12767 4.49456 3.14572Z" fill="#D9B06E"/>
</g>
</g>
</svg>
