<svg width="33" height="32" viewBox="0 0 33 32" fill="none" xmlns="http://www.w3.org/2000/svg">
<g id="Component 40">
<rect x="0.5" width="32" height="32" rx="16" fill="#0C2E22"/>
<g id="Vector">
<path d="M17.7 15.6C17.7 18.6928 15.1928 21.2 12.1 21.2C9.0072 21.2 6.5 18.6928 6.5 15.6C6.5 12.5072 9.0072 10 12.1 10C15.1928 10 17.7 12.5072 17.7 15.6Z" fill="#00AB6C"/>
<path d="M23.3 15.6C23.3 18.6928 22.2255 21.2 20.9 21.2C19.5745 21.2 18.5 18.6928 18.5 15.6C18.5 12.5072 19.5745 10 20.9 10C22.2255 10 23.3 12.5072 23.3 15.6Z" fill="#00AB6C"/>
<path d="M25.6996 15.5998C25.6996 18.2508 25.3414 20.3998 24.8996 20.3998C24.4578 20.3998 24.0996 18.2508 24.0996 15.5998C24.0996 12.9488 24.4577 10.7998 24.8996 10.7998C25.3414 10.7998 25.6996 12.9488 25.6996 15.5998Z" fill="#00AB6C"/>
</g>
</g>
</svg>
