<svg width="17" height="15" viewBox="0 0 17 15" fill="none" xmlns="http://www.w3.org/2000/svg">
<g id="Group 1707478817">
<path id="Vector" d="M16.5 7.3276C16.5 6.3496 15.7126 5.5559 14.7425 5.5559C14.2645 5.5559 13.8427 5.7402 13.5334 6.052C12.3383 5.1874 10.6793 4.6205 8.8515 4.5496L9.6529 0.76536L12.2539 1.3181C12.282 1.9843 12.8304 2.5229 13.5052 2.5229C14.1942 2.5229 14.7566 1.9559 14.7566 1.2614C14.7566 0.56694 14.1942 0 13.5052 0C13.0132 0 12.5913 0.28347 12.3946 0.70867L9.4841 0.0850496C9.3998 0.0708696 9.3154 0.0850402 9.2452 0.12757C9.1748 0.17009 9.1327 0.24095 9.1046 0.32599L8.2188 4.5496C6.3489 4.6063 4.6757 5.1591 3.4666 6.052C3.1573 5.7543 2.7214 5.5559 2.25747 5.5559C1.28734 5.5559 0.5 6.3496 0.5 7.3276C0.5 8.0504 0.92179 8.6598 1.54042 8.9433C1.5123 9.1134 1.49824 9.2977 1.49824 9.4819C1.49824 12.2032 4.6336 14.4 8.514 14.4C12.3946 14.4 15.5298 12.2032 15.5298 9.4819C15.5298 9.2977 15.5158 9.1276 15.4877 8.9575C16.0641 8.674 16.5 8.0504 16.5 7.3276ZM4.4789 8.589C4.4789 7.8945 5.0413 7.3276 5.7302 7.3276C6.4191 7.3276 6.9815 7.8945 6.9815 8.589C6.9815 9.2835 6.4191 9.8504 5.7302 9.8504C5.0413 9.8504 4.4789 9.2835 4.4789 8.589ZM11.4666 11.9197C10.609 12.7842 8.978 12.8409 8.5 12.8409C8.022 12.8409 6.377 12.7701 5.5334 11.9197C5.4068 11.7921 5.4068 11.5795 5.5334 11.452C5.6599 11.3244 5.8708 11.3244 5.9974 11.452C6.5316 11.9906 7.6845 12.189 8.514 12.189C9.3436 12.189 10.4824 11.9906 11.0307 11.452C11.1573 11.3244 11.3682 11.3244 11.4947 11.452C11.5931 11.5937 11.5931 11.7921 11.4666 11.9197ZM11.2416 9.8504C10.5527 9.8504 9.9903 9.2835 9.9903 8.589C9.9903 7.8945 10.5527 7.3276 11.2416 7.3276C11.9305 7.3276 12.493 7.8945 12.493 8.589C12.493 9.2835 11.9305 9.8504 11.2416 9.8504Z" fill="#FF4400"/>
</g>
</svg>
